# xmcd
#
# Track frame offsets:
#	182
#	103700
#	175637
#
# Disc length: 3508 seconds
#
# Revision: 2
# Processed by: cddbd v1.5.1PL2 Copyright (c) Steve Scherf et al.
# Submitted via: audiograbber 1.83.01
#
DISCID=1a0db203
DTITLE=Christoph Heemann - Invisible Barrier
DYEAR=1993
DGENRE=Experimental
TTITLE0=Bounds of Distance
TTITLE1=Moon and Half Dome
TTITLE2=Natural Encounter
EXTD=
EXTT0=
EXTT1=
EXTT2=
PLAYORDER=
